<svg width="15.57" height="15.16" viewBox="0 0 16 16" fill="none" xmlns="http://www.w3.org/2000/svg">
<path d="M12.175 9.25H1C0.716667 9.25 0.479167 9.15417 0.2875 8.9625C0.0958333 8.77084 0 8.53334 0 8.25C0 7.96667 0.0958333 7.72917 0.2875 7.5375C0.479167 7.34584 0.716667 7.25 1 7.25H12.175L7.275 2.35C7.075 2.15 6.97917 1.91667 6.9875 1.65C6.99583 1.38334 7.1 1.15 7.3 0.950003C7.5 0.766669 7.73333 0.670836 8 0.662503C8.26667 0.654169 8.5 0.750003 8.7 0.950003L15.3 7.55C15.4 7.65 15.4708 7.75834 15.5125 7.875C15.5542 7.99167 15.575 8.11667 15.575 8.25C15.575 8.38334 15.5542 8.50834 15.5125 8.625C15.4708 8.74167 15.4 8.85 15.3 8.95L8.7 15.55C8.51667 15.7333 8.2875 15.825 8.0125 15.825C7.7375 15.825 7.5 15.7333 7.3 15.55C7.1 15.35 7 15.1125 7 14.8375C7 14.5625 7.1 14.325 7.3 14.125L12.175 9.25Z" fill="white"/>
</svg>
