<svg width="11.15" height="6.55" viewBox="0 0 12 8" fill="none" xmlns="http://www.w3.org/2000/svg">
<path d="M6 3.27502L2.1 7.17502C1.91667 7.35836 1.68334 7.45002 1.4 7.45002C1.11667 7.45002 0.883336 7.35836 0.700003 7.17502C0.51667 6.99169 0.425003 6.75836 0.425003 6.47502C0.425003 6.19169 0.51667 5.95836 0.700003 5.77502L5.3 1.17502C5.4 1.07502 5.50834 1.00419 5.625 0.962524C5.74167 0.920858 5.86667 0.900024 6 0.900024C6.13334 0.900024 6.25834 0.920858 6.375 0.962524C6.49167 1.00419 6.6 1.07502 6.7 1.17502L11.3 5.77502C11.4833 5.95836 11.575 6.19169 11.575 6.47502C11.575 6.75836 11.4833 6.99169 11.3 7.17502C11.1167 7.35836 10.8833 7.45002 10.6 7.45002C10.3167 7.45002 10.0833 7.35836 9.9 7.17502L6 3.27502Z" fill="#5773FF"/>
</svg>
