<svg width="11.15" height="6.55" viewBox="0 0 12 8" fill="none" xmlns="http://www.w3.org/2000/svg">
<path d="M6 7.45002C5.86667 7.45002 5.74167 7.42919 5.625 7.38752C5.50834 7.34586 5.4 7.27502 5.3 7.17502L0.700003 2.57502C0.51667 2.39169 0.425003 2.15836 0.425003 1.87502C0.425003 1.59169 0.51667 1.35836 0.700003 1.17502C0.883336 0.991691 1.11667 0.900024 1.4 0.900024C1.68334 0.900024 1.91667 0.991691 2.1 1.17502L6 5.07502L9.9 1.17502C10.0833 0.991691 10.3167 0.900024 10.6 0.900024C10.8833 0.900024 11.1167 0.991691 11.3 1.17502C11.4833 1.35836 11.575 1.59169 11.575 1.87502C11.575 2.15836 11.4833 2.39169 11.3 2.57502L6.7 7.17502C6.6 7.27502 6.49167 7.34586 6.375 7.38752C6.25834 7.42919 6.13334 7.45002 6 7.45002Z" fill="#5773FF"/>
</svg>
